<svg xmlns="http://www.w3.org/2000/svg" xmlns:xlink="http://www.w3.org/1999/xlink" viewBox="0 0 1400.61 1847.87"><defs><style>.cls-1{fill:url(#linear-gradient);}</style><linearGradient id="linear-gradient" y1="923.93" x2="1400.61" y2="923.93" gradientUnits="userSpaceOnUse"><stop offset="0" stop-color="#fff"/><stop offset="0" stop-color="#00e984"/><stop offset="1" stop-color="#00bfe9"/><stop offset="1"/></linearGradient></defs><g id="Layer_2" data-name="Layer 2"><g id="Mask"><path class="cls-1" d="M0,1760.79.61,86.57A86.68,86.68,0,0,1,87.24,0L1314,.44a86.71,86.71,0,0,1,86.57,86.63L1400,1761.3a86.71,86.71,0,0,1-86.63,86.57l-1226.8-.45A86.68,86.68,0,0,1,0,1760.79ZM1342.87,87.05A28.87,28.87,0,0,0,1314,58.18L87.21,57.73A28.89,28.89,0,0,0,58.34,86.59l-.61,1674.22a28.89,28.89,0,0,0,28.86,28.88l1226.8.45a28.89,28.89,0,0,0,28.88-28.86Z"/></g></g></svg>