<svg xmlns="http://www.w3.org/2000/svg" xmlns:xlink="http://www.w3.org/1999/xlink" viewBox="0 0 943.04 1893.85"><defs><style>.cls-1{stroke:#00bdff;stroke-miterlimit:10;fill:url(#linear-gradient);}.cls-2{fill:#020202;}</style><linearGradient id="linear-gradient" x1="0.5" y1="946.93" x2="942.54" y2="946.93" gradientUnits="userSpaceOnUse"><stop offset="0" stop-color="#fff"/><stop offset="0" stop-color="#00e984"/><stop offset="1" stop-color="#00bfe9"/><stop offset="1"/></linearGradient></defs><g id="Layer_2" data-name="Layer 2"><g id="Mask"><path id="body" class="cls-1" d="M141,1893.35A131.75,131.75,0,0,1,9.28,1761.6h0V698.79A8.78,8.78,0,0,1,.5,690h0V571.43a8.78,8.78,0,0,1,8.78-8.78V527.51A8.78,8.78,0,0,1,.5,518.73V400.15a8.78,8.78,0,0,1,8.78-8.78V325.49A8.78,8.78,0,0,1,.5,316.71V264a8.79,8.79,0,0,1,8.78-8.79v-123A131.76,131.76,0,0,1,141,.5H802A131.75,131.75,0,0,1,933.75,132.25h0V437.48a8.79,8.79,0,0,1,8.79,8.78V643.89a8.78,8.78,0,0,1-8.79,8.79h0V1761.6A131.75,131.75,0,0,1,802,1893.35H141Z"/><path id="camera" class="cls-2" d="M560.45,75.16A13.18,13.18,0,0,1,573.62,62h0A13.18,13.18,0,0,1,586.8,75.16h0a13.18,13.18,0,0,1-26.35,0ZM419.92,81.75a6.59,6.59,0,0,1,0-13.18H523.13a6.59,6.59,0,0,1,6.58,6.59h0a6.58,6.58,0,0,1-6.58,6.59Z"/></g></g></svg>