<svg id="Layer_1" data-name="Layer 1" xmlns="http://www.w3.org/2000/svg" xmlns:xlink="http://www.w3.org/1999/xlink" viewBox="0 0 548.67 802"><defs><style>.cls-1{fill:url(#linear-gradient);}.cls-2{fill:none;stroke:#fff;stroke-miterlimit:10;stroke-width:30px;}</style><linearGradient id="linear-gradient" x1="10.5" y1="401" x2="538.17" y2="401" gradientUnits="userSpaceOnUse"><stop offset="0" stop-color="#fff"/><stop offset="0" stop-color="#00e984"/><stop offset="1" stop-color="#00bfe9"/><stop offset="1"/></linearGradient></defs><path class="cls-1" d="M274.33,791.5a26.33,26.33,0,0,1-23-13.59L42.18,399.71A264.43,264.43,0,0,1,10.5,274.33C10.5,128.86,128.86,10.5,274.33,10.5S538.17,128.85,538.17,274.33a264.37,264.37,0,0,1-31.6,125.26L297.38,777.92A26.35,26.35,0,0,1,274.33,791.5Zm0-633.33A116.17,116.17,0,1,0,390.5,274.33,116.29,116.29,0,0,0,274.33,158.17Z"/><path d="M274.33,21C414,21,527.67,134.65,527.67,274.33A253.84,253.84,0,0,1,497.33,394.6L288.19,772.84a15.84,15.84,0,0,1-27.71,0L51.41,394.72A253.8,253.8,0,0,1,21,274.33C21,134.65,134.65,21,274.33,21m0,380A126.67,126.67,0,1,0,147.67,274.33,126.81,126.81,0,0,0,274.33,401m0-401C123.07,0,0,123.07,0,274.33A275.09,275.09,0,0,0,32.94,404.71l.05.09,0,.08L242.1,783a36.84,36.84,0,0,0,64.47,0L515.71,404.76l0-.09,0-.09a275,275,0,0,0,32.86-130.25C548.67,123.07,425.6,0,274.33,0Zm0,380A105.67,105.67,0,1,1,380,274.33,105.78,105.78,0,0,1,274.33,380Z"/><path class="cls-2" d="M274.33,21C134.65,21,21,134.65,21,274.33A253.8,253.8,0,0,0,51.41,394.72L260.48,772.84a15.84,15.84,0,0,0,27.71,0L497.33,394.6a253.84,253.84,0,0,0,30.34-120.27C527.67,134.65,414,21,274.33,21Zm0,380A126.67,126.67,0,1,1,401,274.33,126.81,126.81,0,0,1,274.33,401Z"/></svg>