<svg xmlns="http://www.w3.org/2000/svg" xmlns:xlink="http://www.w3.org/1999/xlink" viewBox="0 0 1025 1025"><defs><style>.cls-1{stroke:#00bdff;fill:url(#linear-gradient);}.cls-1,.cls-2{stroke-miterlimit:10;}.cls-2{fill:#0078c5;stroke:#fff;stroke-width:30px;}</style><linearGradient id="linear-gradient" x1="0.5" y1="512.5" x2="1024.5" y2="512.5" gradientUnits="userSpaceOnUse"><stop offset="0" stop-color="#fff"/><stop offset="0" stop-color="#00e984"/><stop offset="1" stop-color="#00bfe9"/><stop offset="1"/></linearGradient></defs><g id="Layer_5" data-name="Layer 5"><rect class="cls-1" x="0.5" y="0.5" width="1024" height="1024" rx="220.83"/></g><g id="Layer_7" data-name="Layer 7"><path class="cls-2" d="M511.67,132C372,132,258.33,245.65,258.33,385.33a253.81,253.81,0,0,0,30.42,120.39L497.81,883.84a15.84,15.84,0,0,0,27.71,0L734.66,505.6A253.73,253.73,0,0,0,765,385.33C765,245.65,651.35,132,511.67,132Zm0,380A126.67,126.67,0,1,1,638.33,385.33,126.81,126.81,0,0,1,511.67,512Z" transform="translate(1 1)"/></g></svg>